<mxfile host="app.diagrams.net" modified="2021-10-11T17:37:41.311Z" agent="5.0 (Macintosh; Intel Mac OS X 10_15_7) AppleWebKit/537.36 (KHTML, like Gecko) Chrome/94.0.4606.71 Safari/537.36" etag="_xap8N62CHTxp9Tbp5WM" version="15.5.1" type="github">
  <diagram id="pVPDxXuSj9QUZrEX7Hru" name="Page-1">
    <mxGraphModel dx="946" dy="614" grid="1" gridSize="10" guides="1" tooltips="1" connect="1" arrows="1" fold="1" page="1" pageScale="1" pageWidth="827" pageHeight="1169" math="0" shadow="0">
      <root>
        <mxCell id="0" />
        <mxCell id="1" parent="0" />
        <mxCell id="FU5SnRE4q-_udUetqIzK-1" value="" style="whiteSpace=wrap;html=1;aspect=fixed;" parent="1" vertex="1">
          <mxGeometry x="270" y="90" width="80" height="80" as="geometry" />
        </mxCell>
        <mxCell id="FU5SnRE4q-_udUetqIzK-2" value="Home" style="text;strokeColor=none;fillColor=none;html=1;fontSize=24;fontStyle=1;verticalAlign=middle;align=center;" parent="1" vertex="1">
          <mxGeometry x="260" y="50" width="100" height="40" as="geometry" />
        </mxCell>
        <mxCell id="FU5SnRE4q-_udUetqIzK-3" value="" style="edgeStyle=orthogonalEdgeStyle;startArrow=none;endArrow=none;rounded=0;targetPortConstraint=eastwest;sourcePortConstraint=northsouth;" parent="1" source="FU5SnRE4q-_udUetqIzK-6" target="FU5SnRE4q-_udUetqIzK-5" edge="1">
          <mxGeometry relative="1" as="geometry">
            <mxPoint x="260" y="170" as="sourcePoint" />
            <Array as="points">
              <mxPoint x="180" y="240" />
              <mxPoint x="180" y="240" />
            </Array>
          </mxGeometry>
        </mxCell>
        <mxCell id="FU5SnRE4q-_udUetqIzK-4" value="" style="edgeStyle=orthogonalEdgeStyle;startArrow=none;endArrow=none;rounded=0;targetPortConstraint=eastwest;sourcePortConstraint=northsouth;" parent="1" source="FU5SnRE4q-_udUetqIzK-1" target="FU5SnRE4q-_udUetqIzK-6" edge="1">
          <mxGeometry relative="1" as="geometry">
            <mxPoint x="310" y="180" as="sourcePoint" />
          </mxGeometry>
        </mxCell>
        <mxCell id="FU5SnRE4q-_udUetqIzK-5" value="Snow" style="whiteSpace=wrap;html=1;align=center;verticalAlign=middle;treeFolding=1;treeMoving=1;" parent="1" vertex="1">
          <mxGeometry x="61" y="210" width="100" height="60" as="geometry" />
        </mxCell>
        <mxCell id="FU5SnRE4q-_udUetqIzK-6" value="Side X Side" style="whiteSpace=wrap;html=1;align=center;verticalAlign=middle;treeFolding=1;treeMoving=1;" parent="1" vertex="1">
          <mxGeometry x="189" y="210" width="100" height="60" as="geometry" />
        </mxCell>
        <mxCell id="FU5SnRE4q-_udUetqIzK-8" value="" style="edgeStyle=orthogonalEdgeStyle;startArrow=none;endArrow=none;rounded=0;targetPortConstraint=eastwest;sourcePortConstraint=northsouth;exitX=0.75;exitY=1;exitDx=0;exitDy=0;" parent="1" source="FU5SnRE4q-_udUetqIzK-1" target="FU5SnRE4q-_udUetqIzK-12" edge="1">
          <mxGeometry relative="1" as="geometry">
            <mxPoint x="330" y="160" as="sourcePoint" />
            <Array as="points">
              <mxPoint x="310" y="170" />
              <mxPoint x="310" y="240" />
            </Array>
          </mxGeometry>
        </mxCell>
        <mxCell id="FU5SnRE4q-_udUetqIzK-9" value="Moto III" style="whiteSpace=wrap;html=1;align=center;verticalAlign=middle;treeFolding=1;treeMoving=1;" parent="1" vertex="1">
          <mxGeometry x="328" y="210" width="100" height="60" as="geometry" />
        </mxCell>
        <mxCell id="FU5SnRE4q-_udUetqIzK-10" value="Dirt bike" style="whiteSpace=wrap;html=1;align=center;verticalAlign=middle;treeFolding=1;treeMoving=1;" parent="1" vertex="1">
          <mxGeometry x="452" y="210" width="100" height="60" as="geometry" />
        </mxCell>
        <mxCell id="FU5SnRE4q-_udUetqIzK-12" value="Street bike" style="whiteSpace=wrap;html=1;align=center;verticalAlign=middle;treeFolding=1;treeMoving=1;" parent="1" vertex="1">
          <mxGeometry x="572" y="210" width="100" height="60" as="geometry" />
        </mxCell>
        <mxCell id="FU5SnRE4q-_udUetqIzK-16" value="" style="shape=table;html=1;whiteSpace=wrap;startSize=0;container=1;collapsible=0;childLayout=tableLayout;" parent="1" vertex="1">
          <mxGeometry x="288" y="330" width="180" height="150" as="geometry" />
        </mxCell>
        <mxCell id="FU5SnRE4q-_udUetqIzK-17" value="" style="shape=partialRectangle;html=1;whiteSpace=wrap;collapsible=0;dropTarget=0;pointerEvents=0;fillColor=none;top=0;left=0;bottom=0;right=0;points=[[0,0.5],[1,0.5]];portConstraint=eastwest;" parent="FU5SnRE4q-_udUetqIzK-16" vertex="1">
          <mxGeometry width="180" height="58" as="geometry" />
        </mxCell>
        <mxCell id="FU5SnRE4q-_udUetqIzK-18" value="" style="shape=partialRectangle;html=1;whiteSpace=wrap;connectable=0;fillColor=none;top=0;left=0;bottom=0;right=0;overflow=hidden;pointerEvents=1;" parent="FU5SnRE4q-_udUetqIzK-17" vertex="1">
          <mxGeometry width="52" height="58" as="geometry">
            <mxRectangle width="52" height="58" as="alternateBounds" />
          </mxGeometry>
        </mxCell>
        <mxCell id="FU5SnRE4q-_udUetqIzK-19" value="" style="shape=partialRectangle;html=1;whiteSpace=wrap;connectable=0;fillColor=none;top=0;left=0;bottom=0;right=0;overflow=hidden;pointerEvents=1;" parent="FU5SnRE4q-_udUetqIzK-17" vertex="1">
          <mxGeometry x="52" width="80" height="58" as="geometry">
            <mxRectangle width="80" height="58" as="alternateBounds" />
          </mxGeometry>
        </mxCell>
        <mxCell id="FU5SnRE4q-_udUetqIzK-20" value="" style="shape=partialRectangle;html=1;whiteSpace=wrap;connectable=0;fillColor=none;top=0;left=0;bottom=0;right=0;overflow=hidden;pointerEvents=1;" parent="FU5SnRE4q-_udUetqIzK-17" vertex="1">
          <mxGeometry x="132" width="48" height="58" as="geometry">
            <mxRectangle width="48" height="58" as="alternateBounds" />
          </mxGeometry>
        </mxCell>
        <mxCell id="FU5SnRE4q-_udUetqIzK-21" value="" style="shape=partialRectangle;html=1;whiteSpace=wrap;collapsible=0;dropTarget=0;pointerEvents=0;fillColor=none;top=0;left=0;bottom=0;right=0;points=[[0,0.5],[1,0.5]];portConstraint=eastwest;" parent="FU5SnRE4q-_udUetqIzK-16" vertex="1">
          <mxGeometry y="58" width="180" height="46" as="geometry" />
        </mxCell>
        <mxCell id="FU5SnRE4q-_udUetqIzK-22" value="" style="shape=partialRectangle;html=1;whiteSpace=wrap;connectable=0;fillColor=none;top=0;left=0;bottom=0;right=0;overflow=hidden;pointerEvents=1;" parent="FU5SnRE4q-_udUetqIzK-21" vertex="1">
          <mxGeometry width="52" height="46" as="geometry">
            <mxRectangle width="52" height="46" as="alternateBounds" />
          </mxGeometry>
        </mxCell>
        <mxCell id="FU5SnRE4q-_udUetqIzK-23" value="" style="shape=partialRectangle;html=1;whiteSpace=wrap;connectable=0;fillColor=none;top=0;left=0;bottom=0;right=0;overflow=hidden;pointerEvents=1;" parent="FU5SnRE4q-_udUetqIzK-21" vertex="1">
          <mxGeometry x="52" width="80" height="46" as="geometry">
            <mxRectangle width="80" height="46" as="alternateBounds" />
          </mxGeometry>
        </mxCell>
        <mxCell id="FU5SnRE4q-_udUetqIzK-24" value="" style="shape=partialRectangle;html=1;whiteSpace=wrap;connectable=0;fillColor=none;top=0;left=0;bottom=0;right=0;overflow=hidden;pointerEvents=1;" parent="FU5SnRE4q-_udUetqIzK-21" vertex="1">
          <mxGeometry x="132" width="48" height="46" as="geometry">
            <mxRectangle width="48" height="46" as="alternateBounds" />
          </mxGeometry>
        </mxCell>
        <mxCell id="FU5SnRE4q-_udUetqIzK-25" value="" style="shape=partialRectangle;html=1;whiteSpace=wrap;collapsible=0;dropTarget=0;pointerEvents=0;fillColor=none;top=0;left=0;bottom=0;right=0;points=[[0,0.5],[1,0.5]];portConstraint=eastwest;" parent="FU5SnRE4q-_udUetqIzK-16" vertex="1">
          <mxGeometry y="104" width="180" height="46" as="geometry" />
        </mxCell>
        <mxCell id="FU5SnRE4q-_udUetqIzK-26" value="" style="shape=partialRectangle;html=1;whiteSpace=wrap;connectable=0;fillColor=none;top=0;left=0;bottom=0;right=0;overflow=hidden;pointerEvents=1;" parent="FU5SnRE4q-_udUetqIzK-25" vertex="1">
          <mxGeometry width="52" height="46" as="geometry">
            <mxRectangle width="52" height="46" as="alternateBounds" />
          </mxGeometry>
        </mxCell>
        <mxCell id="FU5SnRE4q-_udUetqIzK-27" value="" style="shape=partialRectangle;html=1;whiteSpace=wrap;connectable=0;fillColor=none;top=0;left=0;bottom=0;right=0;overflow=hidden;pointerEvents=1;" parent="FU5SnRE4q-_udUetqIzK-25" vertex="1">
          <mxGeometry x="52" width="80" height="46" as="geometry">
            <mxRectangle width="80" height="46" as="alternateBounds" />
          </mxGeometry>
        </mxCell>
        <mxCell id="FU5SnRE4q-_udUetqIzK-28" value="" style="shape=partialRectangle;html=1;whiteSpace=wrap;connectable=0;fillColor=none;top=0;left=0;bottom=0;right=0;overflow=hidden;pointerEvents=1;" parent="FU5SnRE4q-_udUetqIzK-25" vertex="1">
          <mxGeometry x="132" width="48" height="46" as="geometry">
            <mxRectangle width="48" height="46" as="alternateBounds" />
          </mxGeometry>
        </mxCell>
        <UserObject label="&lt;b style=&quot;font-size: 16px&quot;&gt;Helmets &lt;br&gt;&lt;font style=&quot;font-size: 16px&quot;&gt;page&lt;/font&gt;&lt;/b&gt;" placeholders="1" name="Variable" id="FU5SnRE4q-_udUetqIzK-15">
          <mxCell style="text;html=1;strokeColor=none;fillColor=none;align=center;verticalAlign=middle;whiteSpace=wrap;overflow=hidden;" parent="1" vertex="1">
            <mxGeometry x="342" y="336" width="80" height="40" as="geometry" />
          </mxCell>
        </UserObject>
        <mxCell id="FU5SnRE4q-_udUetqIzK-29" value="" style="line;strokeWidth=4;direction=south;html=1;perimeter=backbonePerimeter;points=[];outlineConnect=0;" parent="1" vertex="1">
          <mxGeometry x="373" y="270" width="10" height="60" as="geometry" />
        </mxCell>
        <UserObject label="Product over:&lt;br&gt;quick view (modal)" placeholders="1" name="Variable" id="q9Oh-w-kviJXUtaA4xf2-2">
          <mxCell style="text;html=1;strokeColor=none;fillColor=none;align=center;verticalAlign=middle;whiteSpace=wrap;overflow=hidden;" parent="1" vertex="1">
            <mxGeometry x="338" y="431" width="80" height="50" as="geometry" />
          </mxCell>
        </UserObject>
        <mxCell id="q9Oh-w-kviJXUtaA4xf2-3" value="" style="shape=ext;double=1;rounded=1;whiteSpace=wrap;html=1;fontSize=16;fillColor=#dae8fc;strokeColor=#6c8ebf;" parent="1" vertex="1">
          <mxGeometry x="318" y="500" width="120" height="80" as="geometry" />
        </mxCell>
      </root>
    </mxGraphModel>
  </diagram>
</mxfile>
